
<svg width="800" height="450" viewBox="0 0 800 450" fill="none" xmlns="http://www.w3.org/2000/svg">
  <rect width="800" height="450" fill="#14151A"/>
  <linearGradient id="solanaGradient" x1="0%" y1="0%" x2="100%" y2="100%">
    <stop offset="0%" stop-color="#9945FF"/>
    <stop offset="100%" stop-color="#14F195"/>
  </linearGradient>
  <g transform="translate(240, 115) scale(1.2)">
    <path d="M58.4905 125.216L122.243 61.4673C124.92 58.7902 128.774 57.291 132.801 57.291H267.043C273.309 57.291 276.441 64.908 271.999 69.3493L208.247 133.098C205.57 135.775 201.716 137.274 197.689 137.274H63.4469C57.1813 137.274 54.0489 129.658 58.4905 125.216Z" fill="url(#solanaGradient)"/>
    <path d="M58.4905 232.746L122.243 168.997C124.92 166.32 128.774 164.821 132.801 164.821H267.043C273.309 164.821 276.441 172.437 271.999 176.879L208.247 240.628C205.57 243.305 201.716 244.804 197.689 244.804H63.4469C57.1813 244.804 54.0489 237.188 58.4905 232.746Z" fill="url(#solanaGradient)"/>
    <path d="M208.247 179.055L144.495 242.804C141.818 245.481 137.963 246.98 133.937 246.98H-0.305969C-6.57158 246.98 -9.70398 239.364 -5.26237 234.922L58.4905 171.173C61.1675 168.496 65.0218 166.997 69.0484 166.997H203.291C209.556 166.997 212.689 174.613 208.247 179.055Z" fill="url(#solanaGradient)"/>
  </g>
  <text x="400" y="330" text-anchor="middle" font-family="Arial, sans-serif" font-size="28" font-weight="bold" fill="white">The Go-To Blockchain for DeFi Traders</text>
</svg>
